<svg id="Lager_1" data-name="Lager 1" xmlns="http://www.w3.org/2000/svg" viewBox="0 0 69.37 56.82"><defs><style>.cls-1{fill:#231f20;}.cls-2{fill:#feda46;}</style></defs><title>Logo</title><path class="cls-1" d="M17.61,16.8l.68,47.44c.07,4.82,7.57,4.83,7.5,0L25.11,16.8C25,12,17.54,12,17.61,16.8Z" transform="translate(-17.5 -11.04)"/><path class="cls-1" d="M18.71,19.45,45,42.71c3.6,3.18,8.93-2.1,5.3-5.31L24,14.15c-3.6-3.19-8.93,2.1-5.3,5.3Z" transform="translate(-17.5 -11.04)"/><path class="cls-1" d="M70.35,16.8l-.69,47.44c-.07,4.83,7.43,4.83,7.5,0l.69-47.44c.07-4.83-7.43-4.83-7.5,0Z" transform="translate(-17.5 -11.04)"/><path class="cls-1" d="M71.44,14.15,45.13,37.4c-3.63,3.21,1.69,8.49,5.3,5.31L76.75,19.45c3.62-3.2-1.7-8.49-5.31-5.3Z" transform="translate(-17.5 -11.04)"/><path id="iTunes" class="cls-2" d="M71.59,11c-8.44,0-15.28,4.79-15.28,10.69s6.84,10.7,15.28,10.7,15.28-4.79,15.28-10.7S80,11,71.59,11Zm0,19.25c-6.75,0-12.22-3.83-12.22-8.56s5.47-8.55,12.22-8.55S83.81,17,83.81,21.73,78.34,30.29,71.59,30.29Zm5.6-5.69c.09.91-.88,1.74-2.18,1.85s-2.44-.53-2.54-1.44.88-1.74,2.18-1.85a3.64,3.64,0,0,1,1.16.1V18.8l-6.11.79v5.58h0a.09.09,0,0,1,0,0c.1.91-.87,1.74-2.18,1.85s-2.43-.53-2.53-1.44.87-1.74,2.18-1.85a3.09,3.09,0,0,1,1.15.1V17.45h0l8.87-1.06h0v8.17h0A.06.06,0,0,0,77.19,24.6Z" transform="translate(-17.5 -11.04)"/></svg>