<?xml version="1.0" encoding="utf-8"?>
<!-- Generator: Adobe Illustrator 22.0.1, SVG Export Plug-In . SVG Version: 6.00 Build 0)  -->
<svg version="1.1" id="Lager_1" xmlns="http://www.w3.org/2000/svg" xmlns:xlink="http://www.w3.org/1999/xlink" x="0px" y="0px"
	 viewBox="0 0 29.3 26" style="enable-background:new 0 0 29.3 26;" xml:space="preserve">
<style type="text/css">
	.st0{fill:#231F20;}
	.st1{fill:#FEDA46;}
</style>
<title>logo</title>
<path class="st0" d="M0,2.5l0.3,21.8c0,2.4,3.8,2.4,3.8,0L3.8,2.5C3.8,0.1,0,0.1,0,2.5z"/>
<path class="st0" d="M21.6,2.3L21.9,24c0,2.4,3.8,2.4,3.8,0L25.3,2.3C25.3-0.2,21.6-0.2,21.6,2.3L21.6,2.3z"/>
<path class="st0" d="M0.6,3.8l10.8,10.7c1.7,1.7,4.4-1,2.6-2.6L3.2,1.2C1.5-0.5-1.2,2.1,0.6,3.8z"/>
<path class="st0" d="M21.9,1.1L11.3,11.8c-1.7,1.7,1,4.4,2.6,2.6L24.5,3.7C26.2,2,23.5-0.6,21.9,1.1L21.9,1.1z"/>
<path id="iTunes" class="st1" d="M23.1,0C19.7,0,17,2.2,17,4.9s2.8,4.9,6.2,4.9s6.2-2.2,6.2-4.9S26.6,0,23.1,0z M23.1,8.8
	c-2.7,0-4.9-1.8-4.9-3.9S20.4,1,23.1,1s4.9,1.8,4.9,3.9S25.9,8.8,23.1,8.8z M25.4,6.2c-0.1,0.5-0.6,0.9-1.2,0.8
	c-0.3-0.1-0.6-0.3-0.7-0.6c0-0.5,0.4-0.9,0.9-0.9c0.2,0,0.3,0,0.5,0v-2l-2.5,0.4v2.6l0,0l0,0c0,0.5-0.4,0.8-0.9,0.8
	c-0.5,0.1-0.9-0.2-1-0.7c0-0.5,0.4-0.8,0.9-0.9c0.2,0,0.3,0,0.5,0v-3l0,0l3.6-0.5l0,0L25.4,6.2L25.4,6.2L25.4,6.2z"/>
</svg>
